<svg width="24" height="24" viewBox="0 0 24 24" fill="none" xmlns="http://www.w3.org/2000/svg">
<path fill-rule="evenodd" clip-rule="evenodd" d="M21.7077 0.7056C21.6722 0.307073 21.3323 0.00096952 20.924 0H14.3314C14.119 0.000853745 13.9159 0.0856536 13.7681 0.2352C13.6175 0.384119 13.536 0.587216 13.5428 0.7968V0.8736C13.5428 2.2362 12.4157 3.3408 11.0253 3.3408C9.63487 3.3408 8.50772 2.2362 8.50772 0.8736V0.7968C8.51771 0.588527 8.43977 0.385409 8.29221 0.2352C8.14231 0.0858298 7.93783 0.00118246 7.72405 0H3.21303C2.81065 0.0109753 2.48129 0.317191 2.44895 0.7104L0.489762 22.872C0.469028 23.0891 0.542863 23.3047 0.693055 23.4656C0.843248 23.6265 1.05582 23.7177 1.27833 23.7168H22.8979C23.1204 23.7177 23.333 23.6265 23.4832 23.4656C23.6334 23.3047 23.7072 23.0891 23.6865 22.872L21.7077 0.7056ZM16.0947 22.1664H2.14528L3.91835 1.55041H6.96488C7.29573 3.48617 9.00536 4.90431 11.0081 4.90431C13.0109 4.90431 14.7206 3.48617 15.0514 1.55041H17.8677L16.0947 22.1664ZM20.4392 22.0896V22.1664H22.0408L21.9085 20.8032C21.8162 20.8699 21.7049 20.9068 21.5902 20.9088C21.2629 20.9088 20.9975 20.6488 20.9975 20.328C20.9975 20.0072 21.2629 19.7472 21.5902 19.7472C21.6691 19.7467 21.7473 19.7614 21.8204 19.7904L21.6147 17.4912C21.3043 17.4926 21.0463 17.2572 21.0255 16.9537C21.0048 16.6502 21.2285 16.3832 21.5363 16.344L21.3257 13.9968C21.1445 13.9012 21.0288 13.7184 21.022 13.5168C21.0237 13.3432 21.1046 13.1794 21.2424 13.0704L20.2628 2.03039C20.1577 2.12307 20.0222 2.17585 19.8808 2.17919C19.7204 2.17746 19.5672 2.11362 19.4547 2.00159L18.4751 13.08C18.6319 13.1906 18.722 13.3707 18.7151 13.56C18.7129 13.7755 18.5882 13.9718 18.3918 14.0688L18.191 16.4016C18.4879 16.4311 18.7141 16.6756 18.7151 16.968C18.7151 17.122 18.6526 17.2698 18.5415 17.3787C18.4304 17.4876 18.2796 17.5488 18.1224 17.5488H18.0832L17.8824 19.8528C17.9569 19.8222 18.0368 19.8059 18.1175 19.8048C18.4448 19.8048 18.7102 20.0648 18.7102 20.3856C18.7102 20.7064 18.4448 20.9664 18.1175 20.9664C18.0014 20.9635 17.8889 20.9268 17.7943 20.8608L17.6816 22.1664H19.2539C19.2515 22.1408 19.2515 22.1151 19.2539 22.0896C19.2539 21.8821 19.3668 21.6904 19.5502 21.5866C19.7335 21.4829 19.9595 21.4829 20.1428 21.5866C20.3262 21.6904 20.4392 21.8821 20.4392 22.0896Z" fill="white"/>
<path d="M19.8612 4.45459C19.5339 4.45459 19.2686 4.71462 19.2686 5.03539C19.2686 5.35616 19.5339 5.61619 19.8612 5.61619C20.1885 5.61619 20.4539 5.35616 20.4539 5.03539C20.4539 4.71462 20.1885 4.45459 19.8612 4.45459Z" fill="white"/>
<path d="M19.8612 7.86719C19.5339 7.86719 19.2686 8.12722 19.2686 8.44799C19.2686 8.76875 19.5339 9.02879 19.8612 9.02879C20.1885 9.02879 20.4539 8.76875 20.4539 8.44799C20.4539 8.12722 20.1885 7.86719 19.8612 7.86719Z" fill="white"/>
<path d="M19.8612 11.2754C19.5339 11.2754 19.2686 11.5354 19.2686 11.8562C19.2686 12.177 19.5339 12.437 19.8612 12.437C20.1885 12.437 20.4539 12.177 20.4539 11.8562C20.4539 11.7022 20.3914 11.5544 20.2803 11.4455C20.1691 11.3366 20.0184 11.2754 19.8612 11.2754Z" fill="white"/>
<path d="M19.8612 14.688C19.5339 14.688 19.2686 14.948 19.2686 15.2688C19.2686 15.5896 19.5339 15.8496 19.8612 15.8496C20.1885 15.8496 20.4539 15.5896 20.4539 15.2688C20.4539 14.948 20.1885 14.688 19.8612 14.688V14.688Z" fill="white"/>
<path d="M19.8613 18.0962C19.6191 18.0943 19.3997 18.2357 19.3057 18.4544C19.2117 18.673 19.2616 18.9257 19.4321 19.0942C19.6026 19.2626 19.86 19.3136 20.0839 19.2233C20.3078 19.1329 20.4539 18.9191 20.4539 18.6818C20.4539 18.3603 20.1894 18.0988 19.8613 18.0962Z" fill="white"/>
</svg>
