<svg width="34" height="22" viewBox="0 0 34 22" fill="none" xmlns="http://www.w3.org/2000/svg">
<path d="M14.6509 10.7357H11.3103C10.8125 10.7357 10.4106 11.1375 10.4106 11.6353C10.4106 12.1331 10.8125 12.5349 11.3103 12.5349H14.6509C15.1487 12.5349 15.5505 12.1331 15.5505 11.6353C15.5505 11.1375 15.1487 10.7357 14.6509 10.7357Z" fill="white"/>
<path d="M7.97284 16.9398C7.595 16.9398 7.28613 17.2457 7.28613 17.6265C7.28613 18.0044 7.592 18.3132 7.97284 18.3132C8.35068 18.3132 8.65955 18.0074 8.65955 17.6265C8.65955 17.2457 8.35068 16.9398 7.97284 16.9398Z" fill="white"/>
<path d="M25.9836 16.9398C25.6057 16.9398 25.2969 17.2457 25.2969 17.6265C25.2969 18.0044 25.6027 18.3132 25.9836 18.3132C26.3614 18.3132 26.6703 18.0074 26.6703 17.6265C26.6703 17.2457 26.3644 16.9398 25.9836 16.9398Z" fill="white"/>
<path d="M29.5216 1.87433C29.2037 1.87433 28.9458 2.13222 28.9458 2.45009C28.9458 2.76795 29.2037 3.02584 29.5216 3.02584C29.8394 3.02584 30.0973 2.76795 30.0973 2.45009C30.0973 2.13222 29.8364 1.87433 29.5216 1.87433Z" fill="white"/>
<path d="M26.1412 1.87433C25.8233 1.87433 25.5654 2.13222 25.5654 2.45009C25.5654 2.76795 25.8233 3.02584 26.1412 3.02584C26.4591 3.02584 26.7169 2.76795 26.7169 2.45009C26.7169 2.13222 26.4591 1.87433 26.1412 1.87433Z" fill="white"/>
<path d="M27.8345 3.56262C27.5167 3.56262 27.2588 3.82051 27.2588 4.13838C27.2588 4.45625 27.5167 4.71414 27.8345 4.71414C28.1524 4.71414 28.4103 4.45625 28.4103 4.13838C28.4103 3.82051 28.1494 3.56262 27.8345 3.56262Z" fill="white"/>
<path d="M27.8345 6.94202C27.5167 6.94202 27.2588 7.19991 27.2588 7.51777C27.2588 7.83564 27.5167 8.09353 27.8345 8.09353C28.1524 8.09353 28.4103 7.83564 28.4103 7.51777C28.4073 7.19991 28.1494 6.94202 27.8345 6.94202Z" fill="white"/>
<path d="M31.2105 6.94202C30.8927 6.94202 30.6348 7.19991 30.6348 7.51777C30.6348 7.83564 30.8927 8.09353 31.2105 8.09353C31.5284 8.09353 31.7863 7.83564 31.7863 7.51777C31.7863 7.19991 31.5284 6.94202 31.2105 6.94202Z" fill="white"/>
<path d="M29.5216 5.25403C29.2037 5.25403 28.9458 5.51192 28.9458 5.82979C28.9458 6.14765 29.2037 6.40554 29.5216 6.40554C29.8394 6.40554 30.0973 6.14765 30.0973 5.82979C30.0973 5.51192 29.8364 5.25403 29.5216 5.25403Z" fill="white"/>
<path d="M26.1412 5.25403C25.8233 5.25403 25.5654 5.51192 25.5654 5.82979C25.5654 6.14765 25.8233 6.40554 26.1412 6.40554C26.4591 6.40554 26.7169 6.14765 26.7169 5.82979C26.7169 5.51192 26.4591 5.25403 26.1412 5.25403Z" fill="white"/>
<path d="M29.5216 8.63025C29.2037 8.63025 28.9458 8.88814 28.9458 9.20601C28.9458 9.52387 29.2037 9.78177 29.5216 9.78177C29.8394 9.78177 30.0973 9.52387 30.0973 9.20601C30.0973 8.88814 29.8364 8.63025 29.5216 8.63025Z" fill="white"/>
<path d="M26.1412 8.63025C25.8233 8.63025 25.5654 8.88814 25.5654 9.20601C25.5654 9.52387 25.8233 9.78177 26.1412 9.78177C26.4591 9.78177 26.7169 9.52387 26.7169 9.20601C26.7169 8.88814 26.4591 8.63025 26.1412 8.63025Z" fill="white"/>
<path d="M27.8345 10.3187C27.5167 10.3187 27.2588 10.5766 27.2588 10.8945C27.2588 11.2123 27.5167 11.4702 27.8345 11.4702C28.1524 11.4702 28.4103 11.2123 28.4103 10.8945C28.4103 10.5766 28.1494 10.3187 27.8345 10.3187Z" fill="white"/>
<path d="M31.2105 10.3187C30.8927 10.3187 30.6348 10.5766 30.6348 10.8945C30.6348 11.2123 30.8927 11.4702 31.2105 11.4702C31.5284 11.4702 31.7863 11.2123 31.7863 10.8945C31.7863 10.5766 31.5284 10.3187 31.2105 10.3187Z" fill="white"/>
<path d="M31.2105 13.6984C30.8927 13.6984 30.6348 13.9563 30.6348 14.2741C30.6348 14.592 30.8927 14.8499 31.2105 14.8499C31.5284 14.8499 31.7863 14.592 31.7863 14.2741C31.7863 13.9563 31.5284 13.6984 31.2105 13.6984Z" fill="white"/>
<path d="M29.5216 12.0101C29.2037 12.0101 28.9458 12.268 28.9458 12.5859C28.9458 12.9038 29.2037 13.1616 29.5216 13.1616C29.8394 13.1616 30.0973 12.9038 30.0973 12.5859C30.0973 12.268 29.8364 12.0101 29.5216 12.0101Z" fill="white"/>
<path d="M26.1412 13.1616C26.4592 13.1616 26.7169 12.9039 26.7169 12.5859C26.7169 12.2679 26.4592 12.0101 26.1412 12.0101C25.8232 12.0101 25.5654 12.2679 25.5654 12.5859C25.5654 12.9039 25.8232 13.1616 26.1412 13.1616Z" fill="white"/>
<path d="M22.7662 1.87433C22.4483 1.87433 22.1904 2.13222 22.1904 2.45009C22.1904 2.76795 22.4483 3.02584 22.7662 3.02584C23.0841 3.02584 23.3419 2.76795 23.3419 2.45009C23.3419 2.13222 23.0841 1.87433 22.7662 1.87433Z" fill="white"/>
<path d="M19.3858 1.87433C19.0679 1.87433 18.8101 2.13222 18.8101 2.45009C18.8101 2.76795 19.0679 3.02584 19.3858 3.02584C19.7037 3.02584 19.9616 2.76795 19.9616 2.45009C19.9616 2.13222 19.7037 1.87433 19.3858 1.87433Z" fill="white"/>
<path d="M21.0777 3.56262C20.7598 3.56262 20.502 3.82051 20.502 4.13838C20.502 4.45625 20.7598 4.71414 21.0777 4.71414C21.3956 4.71414 21.6535 4.45625 21.6535 4.13838C21.6535 3.82051 21.3926 3.56262 21.0777 3.56262Z" fill="white"/>
<path d="M24.4552 4.71414C24.7731 4.71414 25.0309 4.45636 25.0309 4.13838C25.0309 3.8204 24.7731 3.56262 24.4552 3.56262C24.1372 3.56262 23.8794 3.8204 23.8794 4.13838C23.8794 4.45636 24.1372 4.71414 24.4552 4.71414Z" fill="white"/>
<path d="M21.0777 6.94202C20.7598 6.94202 20.502 7.19991 20.502 7.51777C20.502 7.83564 20.7598 8.09353 21.0777 8.09353C21.3956 8.09353 21.6535 7.83564 21.6535 7.51777C21.6505 7.19991 21.3926 6.94202 21.0777 6.94202Z" fill="white"/>
<path d="M24.4552 6.94202C24.1373 6.94202 23.8794 7.19991 23.8794 7.51777C23.8794 7.83564 24.1373 8.09353 24.4552 8.09353C24.773 8.09353 25.0309 7.83564 25.0309 7.51777C25.0309 7.19991 24.773 6.94202 24.4552 6.94202Z" fill="white"/>
<path d="M22.7662 5.25403C22.4483 5.25403 22.1904 5.51192 22.1904 5.82979C22.1904 6.14765 22.4483 6.40554 22.7662 6.40554C23.0841 6.40554 23.3419 6.14765 23.3419 5.82979C23.3419 5.51192 23.0841 5.25403 22.7662 5.25403Z" fill="white"/>
<path d="M19.3858 5.25403C19.0679 5.25403 18.8101 5.51192 18.8101 5.82979C18.8101 6.14765 19.0679 6.40554 19.3858 6.40554C19.7037 6.40554 19.9616 6.14765 19.9616 5.82979C19.9616 5.51192 19.7037 5.25403 19.3858 5.25403Z" fill="white"/>
<path d="M22.7662 8.63025C22.4483 8.63025 22.1904 8.88814 22.1904 9.20601C22.1904 9.52387 22.4483 9.78177 22.7662 9.78177C23.0841 9.78177 23.3419 9.52387 23.3419 9.20601C23.3419 8.88814 23.0841 8.63025 22.7662 8.63025Z" fill="white"/>
<path d="M19.3858 8.63025C19.0679 8.63025 18.8101 8.88814 18.8101 9.20601C18.8101 9.52387 19.0679 9.78177 19.3858 9.78177C19.7037 9.78177 19.9616 9.52387 19.9616 9.20601C19.9616 8.88814 19.7037 8.63025 19.3858 8.63025Z" fill="white"/>
<path d="M21.0777 10.3187C20.7598 10.3187 20.502 10.5766 20.502 10.8945C20.502 11.2123 20.7598 11.4702 21.0777 11.4702C21.3956 11.4702 21.6535 11.2123 21.6535 10.8945C21.6535 10.5766 21.3926 10.3187 21.0777 10.3187Z" fill="white"/>
<path d="M24.4552 11.4702C24.7731 11.4702 25.0309 11.2125 25.0309 10.8945C25.0309 10.5765 24.7731 10.3187 24.4552 10.3187C24.1372 10.3187 23.8794 10.5765 23.8794 10.8945C23.8794 11.2125 24.1372 11.4702 24.4552 11.4702Z" fill="white"/>
<path d="M21.0777 13.6984C20.7598 13.6984 20.502 13.9563 20.502 14.2741C20.502 14.592 20.7598 14.8499 21.0777 14.8499C21.3956 14.8499 21.6535 14.592 21.6535 14.2741C21.6505 13.9563 21.3926 13.6984 21.0777 13.6984Z" fill="white"/>
<path d="M22.7662 12.0101C22.4483 12.0101 22.1904 12.268 22.1904 12.5859C22.1904 12.9038 22.4483 13.1616 22.7662 13.1616C23.0841 13.1616 23.3419 12.9038 23.3419 12.5859C23.3419 12.268 23.0841 12.0101 22.7662 12.0101Z" fill="white"/>
<path d="M19.3858 12.0101C19.0679 12.0101 18.8101 12.268 18.8101 12.5859C18.8101 12.9038 19.0679 13.1616 19.3858 13.1616C19.7037 13.1616 19.9616 12.9038 19.9616 12.5859C19.9616 12.268 19.7037 12.0101 19.3858 12.0101Z" fill="white"/>
<path d="M19.3858 15.3868C19.0679 15.3868 18.8101 15.6447 18.8101 15.9626C18.8101 16.2805 19.0679 16.5384 19.3858 16.5384C19.7037 16.5384 19.9616 16.2805 19.9616 15.9626C19.9616 15.6447 19.7037 15.3868 19.3858 15.3868Z" fill="white"/>
<path d="M17.6983 4.71414C18.0163 4.71414 18.2741 4.45636 18.2741 4.13838C18.2741 3.8204 18.0163 3.56262 17.6983 3.56262C17.3803 3.56262 17.1226 3.8204 17.1226 4.13838C17.1226 4.45636 17.3803 4.71414 17.6983 4.71414Z" fill="white"/>
<path d="M17.6983 6.94202C17.3804 6.94202 17.1226 7.19991 17.1226 7.51777C17.1226 7.83564 17.3804 8.09353 17.6983 8.09353C18.0162 8.09353 18.2741 7.83564 18.2741 7.51777C18.2741 7.19991 18.0162 6.94202 17.6983 6.94202Z" fill="white"/>
<path d="M17.6983 11.4702C18.0163 11.4702 18.2741 11.2125 18.2741 10.8945C18.2741 10.5765 18.0163 10.3187 17.6983 10.3187C17.3803 10.3187 17.1226 10.5765 17.1226 10.8945C17.1226 11.2125 17.3803 11.4702 17.6983 11.4702Z" fill="white"/>
<path d="M17.6983 13.6984C17.3804 13.6984 17.1226 13.9563 17.1226 14.2741C17.1226 14.592 17.3804 14.8499 17.6983 14.8499C18.0162 14.8499 18.2741 14.592 18.2741 14.2741C18.2741 13.9563 18.0162 13.6984 17.6983 13.6984Z" fill="white"/>
<path d="M31.6757 0.383839C31.5407 0.146939 31.2888 0 31.0159 0H29.4836H12.3818C10.9604 0 9.61995 0.755682 8.88526 1.97017L5.63163 7.34991L2.01215 8.62737C0.809659 9.05319 0 10.1957 0 11.4732V17.6596C0 18.0794 0.338857 18.4182 0.758681 18.4182H4.13826C4.49211 20.2145 6.07244 21.5729 7.97364 21.5729C9.87484 21.5729 11.4552 20.2175 11.809 18.4182H22.1427C22.1847 18.6312 22.2476 18.8381 22.3226 19.039C22.3286 19.057 22.3346 19.075 22.3406 19.093C22.4156 19.2819 22.5055 19.4618 22.6045 19.6357C22.6195 19.6627 22.6345 19.6867 22.6525 19.7137C22.7544 19.8816 22.8684 20.0406 22.9943 20.1875C23.0123 20.2085 23.0333 20.2295 23.0513 20.2505C23.1772 20.3944 23.3122 20.5264 23.4561 20.6493C23.4681 20.6583 23.4771 20.6703 23.4891 20.6793C23.639 20.8022 23.798 20.9102 23.9629 21.0122C23.9959 21.0331 24.0289 21.0541 24.0619 21.0721C24.2238 21.1651 24.3947 21.2431 24.5716 21.312C24.6106 21.327 24.6496 21.342 24.6886 21.354C24.8685 21.417 25.0574 21.471 25.2494 21.507C25.2823 21.5129 25.3123 21.5159 25.3453 21.5219C25.5492 21.5549 25.7591 21.5789 25.9751 21.5789C25.9751 21.5789 25.9781 21.5789 25.9811 21.5789C25.9811 21.5789 25.9841 21.5789 25.9871 21.5789C26.203 21.5789 26.4099 21.5579 26.6168 21.5219C26.6498 21.5159 26.6828 21.5129 26.7127 21.507C26.9047 21.471 27.0906 21.417 27.2735 21.354C27.3125 21.339 27.3515 21.327 27.3905 21.312C27.5674 21.2431 27.7353 21.1651 27.9002 21.0721C27.9332 21.0541 27.9662 21.0331 27.9992 21.0122C28.1641 20.9132 28.3231 20.8052 28.473 20.6823C28.485 20.6733 28.494 20.6613 28.506 20.6523C28.6499 20.5294 28.7849 20.3974 28.9108 20.2535C28.9288 20.2325 28.9498 20.2115 28.9678 20.1905C29.0937 20.0406 29.2077 19.8816 29.3097 19.7167C29.3246 19.6897 29.3426 19.6657 29.3576 19.6387C29.4596 19.4678 29.5466 19.2879 29.6215 19.099C29.6275 19.081 29.6335 19.063 29.6425 19.045C29.7175 18.8471 29.7805 18.6402 29.8224 18.4272H30.3682H31.9006C32.2394 18.4272 32.5393 18.2023 32.6323 17.8755C34.3955 11.6531 34.0027 4.46212 31.6757 0.383839ZM10.1867 2.75884C10.6485 1.99416 11.4912 1.52036 12.3848 1.52036H15.1316V7.19697H7.49984L10.1867 2.75884ZM7.97664 20.0526C6.6572 20.0526 5.58365 18.979 5.58365 17.6596C5.58365 16.3401 6.6572 15.2666 7.97664 15.2666C9.29608 15.2666 10.3696 16.3401 10.3696 17.6596C10.3696 18.979 9.29608 20.0526 7.97664 20.0526ZM25.9841 20.0526C24.6646 20.0526 23.5911 18.979 23.5911 17.6596C23.5911 17.3927 23.645 17.1408 23.726 16.9009C24.0469 15.9533 24.9315 15.2666 25.9841 15.2666C27.0366 15.2666 27.9242 15.9533 28.2421 16.9009C28.3231 17.1408 28.377 17.3927 28.377 17.6596C28.377 18.979 27.3035 20.0526 25.9841 20.0526ZM32.1914 9.76989C32.1914 10.1297 32.1884 10.4926 32.1764 10.8584C32.1764 10.9004 32.1764 10.9424 32.1734 10.9844C32.1734 10.9844 32.1704 10.9844 32.1704 10.9814C32.1585 11.2723 32.1495 11.5631 32.1285 11.857C32.1285 11.857 32.1285 11.857 32.1285 11.86C32.0145 13.5423 31.7506 15.2426 31.3488 16.8919H31.3248C31.3248 16.8949 31.3248 16.8979 31.3218 16.9009H31.0459H30.4822H30.2962H29.8134C29.7865 16.7659 29.7535 16.631 29.7115 16.4991C29.9334 16.4211 30.0953 16.2112 30.0953 15.9623C30.0953 15.6444 29.8374 15.3865 29.5196 15.3865C29.4056 15.3865 29.3037 15.4285 29.2137 15.4885C28.9708 15.1256 28.6769 14.8048 28.3291 14.5439C28.374 14.4629 28.407 14.373 28.407 14.274C28.407 13.9561 28.1491 13.6982 27.8313 13.6982C27.6154 13.6982 27.4324 13.8242 27.3335 14.0011C26.9556 13.8632 26.5508 13.7762 26.128 13.7612C26.131 13.7612 26.134 13.7582 26.137 13.7552C26.083 13.7522 26.032 13.7462 25.9781 13.7462C25.9241 13.7462 25.8731 13.7522 25.8191 13.7552C25.8221 13.7552 25.8251 13.7582 25.8311 13.7612C25.5043 13.7732 25.1924 13.8362 24.8925 13.9231C24.7876 13.7882 24.6316 13.6982 24.4487 13.6982C24.1308 13.6982 23.8729 13.9561 23.8729 14.274C23.8729 14.31 23.8879 14.34 23.8939 14.376C23.4711 14.6458 23.0963 14.9877 22.8054 15.3985C22.7904 15.3985 22.7754 15.3895 22.7604 15.3895C22.4425 15.3895 22.1847 15.6474 22.1847 15.9653C22.1847 16.1032 22.2416 16.2262 22.3226 16.3251C22.3106 16.3611 22.2926 16.3911 22.2806 16.4271C22.2776 16.4241 22.2746 16.4241 22.2716 16.4241C22.2206 16.58 22.1847 16.742 22.1517 16.9039H21.483H18.6282H17.5336H14.4539H11.812C11.4582 15.1076 9.87484 13.7492 7.97664 13.7492C6.07844 13.7492 4.49211 15.1046 4.13826 16.9009H1.51736V11.4732C1.51736 10.8404 1.91919 10.2707 2.51594 10.0578L6.32434 8.71433H15.8843C16.3041 8.71433 16.643 8.37548 16.643 7.95565V1.52036H29.5496H30.1373H30.5571H30.6891C30.968 2.16509 31.2109 2.8638 31.4148 3.60748C31.3488 3.58349 31.2798 3.5655 31.2079 3.5655C30.89 3.5655 30.6321 3.82339 30.6321 4.14126C30.6321 4.45912 30.89 4.71702 31.2079 4.71702C31.3818 4.71702 31.5317 4.63605 31.6367 4.5131C31.8916 5.66462 32.0625 6.9001 32.1375 8.18656C32.1645 8.63337 32.1824 9.08618 32.1884 9.54199C32.1944 9.61695 32.1914 9.69192 32.1914 9.76989Z" fill="white"/>
</svg>
